<svg xmlns="http://www.w3.org/2000/svg" xmlns:xlink="http://www.w3.org/1999/xlink" viewBox="0 0 433.87 353.06"><defs><style>.cls-1{isolation:isolate;}.cls-2{fill:url(#linear-gradient);}.cls-3{fill:#b2baed;}.cls-4{fill:#ffa683;}.cls-5{fill:url(#linear-gradient-2);}.cls-6{fill:url(#linear-gradient-3);}.cls-7{fill:url(#linear-gradient-4);}.cls-8{fill:url(#linear-gradient-5);}.cls-9{fill:#091c23;}.cls-10{fill:url(#linear-gradient-6);}.cls-11{fill:#29abe2;}.cls-12{fill:#04293f;}.cls-13{fill:#f78b6b;}.cls-14{fill:url(#linear-gradient-7);}.cls-15{fill:#fff;}.cls-16{fill:url(#linear-gradient-8);}.cls-17{fill:url(#linear-gradient-9);}.cls-18{fill:#f4d1ae;}.cls-19{fill:url(#linear-gradient-10);}.cls-20{fill:url(#linear-gradient-11);}.cls-21{fill:url(#linear-gradient-12);}.cls-22{fill:#21a4cc;opacity:0.42;mix-blend-mode:multiply;}.cls-23,.cls-25{fill:#073456;}.cls-24{fill:url(#linear-gradient-13);}.cls-25,.cls-28,.cls-29{fill-rule:evenodd;}.cls-26{fill:url(#linear-gradient-14);}.cls-27{fill:#c8d7db;}.cls-28{fill:url(#linear-gradient-15);}.cls-29{fill:url(#linear-gradient-16);}.cls-30{fill:url(#linear-gradient-17);}.cls-31{fill:#cccff2;}.cls-32{fill:#e1e2fd;}</style><linearGradient id="linear-gradient" x1="368.01" y1="421.16" x2="93.82" y2="146.97" gradientUnits="userSpaceOnUse"><stop offset="0" stop-color="#d2d5fb"/><stop offset="1" stop-color="#efeeff"/></linearGradient><linearGradient id="linear-gradient-2" x1="113.09" y1="411.51" x2="136.97" y2="411.51" gradientUnits="userSpaceOnUse"><stop offset="0.21" stop-color="#04293f"/><stop offset="0.44" stop-color="#0a3753"/><stop offset="1" stop-color="#185b84"/></linearGradient><linearGradient id="linear-gradient-3" x1="143.99" y1="394.8" x2="163.37" y2="394.8" xlink:href="#linear-gradient-2"/><linearGradient id="linear-gradient-4" x1="128.35" y1="348.99" x2="162.15" y2="348.99" xlink:href="#linear-gradient-2"/><linearGradient id="linear-gradient-5" x1="114.67" y1="338.85" x2="154.68" y2="338.85" xlink:href="#linear-gradient-2"/><linearGradient id="linear-gradient-6" x1="140.59" y1="290.43" x2="148.11" y2="200.14" gradientUnits="userSpaceOnUse"><stop offset="0" stop-color="#d028bb"/><stop offset="1" stop-color="#974ef4"/></linearGradient><linearGradient id="linear-gradient-7" x1="70.52" y1="183.7" x2="127.04" y2="183.7" gradientUnits="userSpaceOnUse"><stop offset="0" stop-color="#ff7867"/><stop offset="1" stop-color="#ffca46"/></linearGradient><linearGradient id="linear-gradient-8" x1="328.42" y1="406.42" x2="288.56" y2="360.01" xlink:href="#linear-gradient-2"/><linearGradient id="linear-gradient-9" x1="228.81" y1="415.68" x2="424.94" y2="396.12" gradientUnits="userSpaceOnUse"><stop offset="0.21" stop-color="#04293f"/><stop offset="1" stop-color="#185b84"/></linearGradient><linearGradient id="linear-gradient-10" x1="231.03" y1="400.7" x2="245.08" y2="400.7" xlink:href="#linear-gradient-2"/><linearGradient id="linear-gradient-11" x1="315.15" y1="355.64" x2="368.92" y2="355.64" gradientUnits="userSpaceOnUse"><stop offset="0" stop-color="#76feff"/><stop offset="0.96" stop-color="#48cbff"/></linearGradient><linearGradient id="linear-gradient-12" x1="379.39" y1="408.26" x2="381.73" y2="296.9" gradientUnits="userSpaceOnUse"><stop offset="0.04" stop-color="#48cbff"/><stop offset="1" stop-color="#76feff"/></linearGradient><linearGradient id="linear-gradient-13" x1="368.1" y1="242.5" x2="433.58" y2="242.5" xlink:href="#linear-gradient-6"/><linearGradient id="linear-gradient-14" x1="261.16" y1="204.63" x2="261.16" y2="128.84" xlink:href="#linear-gradient-7"/><linearGradient id="linear-gradient-15" x1="232.33" y1="201.01" x2="302" y2="201.01" gradientUnits="userSpaceOnUse"><stop offset="0.05" stop-color="#6d1fce"/><stop offset="1" stop-color="#4d1c8c"/></linearGradient><linearGradient id="linear-gradient-16" x1="254.09" y1="218.29" x2="276.98" y2="218.29" xlink:href="#linear-gradient-15"/><linearGradient id="linear-gradient-17" x1="336.75" y1="131.27" x2="283.73" y2="78.25" xlink:href="#linear-gradient-6"/></defs><g class="cls-1"><g id="OBJECTS"><path class="cls-2" d="M108.64,416.59c-19.59-5.21-39.86-10.75-55.48-23.67S27.88,357.5,36,338.93c6.73-15.36,23-23.73,37.51-32.15s29.69-20.25,31.14-37c1.41-16.12-10.46-29.9-20-42.95S46.89,141.3,148,154.14c46.6,5.92,61.33-25.42,66.28-34.09,13.61-23.83,44.18-32.43,71.62-31.83,15.28.33,30.89,3,44.1,10.64s23.73,21.09,25.09,36.32c1.58,17.79-9,36.29-2.5,52.94,5.4,13.89,20.86,21,35.47,24s30,3.26,43.5,9.65c14.8,7,25.64,21,30.92,36.53s5.39,32.43,2.61,48.58c-8.09,47.12-41.79,89-86.07,107Z" transform="translate(-33.06 -68.4)"/><path class="cls-3" d="M445.33,413.92h-393a3.78,3.78,0,0,0-3.76,3.77h0a3.78,3.78,0,0,0,3.76,3.77h393a3.78,3.78,0,0,0,3.77-3.77h0A3.78,3.78,0,0,0,445.33,413.92Z" transform="translate(-33.06 -68.4)"/><path class="cls-3" d="M403.44,228.2l4-44.17H370.7l5.57-55.41-46,0L324.68,184H205.82l5.57-55.41-46,0L159.8,184H122.65l-4,44.17h36.71L144.5,314.88H110.56l-5.07,44h36.74l-5.56,55.41,46,0,5.56-55.38H307.11l-5.56,55.41,46,0,5.57-55.38h37.14l4-44.18H357.57l8.69-86.47Zm-91.89,86.47H192.69l8.69-86.47H320.24Z" transform="translate(-33.06 -68.4)"/><polygon class="cls-4" points="103.9 340.47 103.9 329.5 96.35 329.5 96.35 342.67 103.9 340.47"/><path class="cls-5" d="M137,408.87v6.94H113.09a3.1,3.1,0,0,1,1.32-2.11c1.22-.88,15-6.5,15-6.5l2.28,2.38Z" transform="translate(-33.06 -68.4)"/><polygon class="cls-4" points="126.1 316.4 119.45 307.67 113.45 312.25 121.43 322.73 126.1 316.4"/><path class="cls-6" d="M159.17,384.81l4.2,5.51-19,14.47a3.1,3.1,0,0,1-.23-2.47c.45-1.44,8-14.26,8-14.26l3.25.5Z" transform="translate(-33.06 -68.4)"/><path class="cls-7" d="M137.56,405.6l-9.21-.09,14-113.13h19.84C162.85,307.29,137.56,405.6,137.56,405.6Z" transform="translate(-33.06 -68.4)"/><path class="cls-8" d="M144.55,292.38S134.19,327.46,130.94,335l23.74,42.52-7,7.81s-33.32-45.55-33-49.26c.18-2.24,7.92-43.69,7.92-43.69Z" transform="translate(-33.06 -68.4)"/><path class="cls-9" d="M151.59,282.44c.28-1.48.32-1.73,0,0Z" transform="translate(-33.06 -68.4)"/><path class="cls-9" d="M132.86,282.44c-.32-1.73-.28-1.48,0,0Z" transform="translate(-33.06 -68.4)"/><path class="cls-10" d="M148.37,224.79l-10.51.8c-19.26.95-29.77,25.94-29.77,25.94l9.87,10,5.37-5.69-1.87,36.42,41.39.09L161.64,253l4.13,6.36,13.81-8s-12.52-25.75-31.21-26.59" transform="translate(-33.06 -68.4)"/><polygon class="cls-11" points="89.45 224.24 89.2 224.24 89.22 223.83 89.45 224.24"/><path class="cls-12" d="M131.32,202.52s-3-16.38,9.61-14.32c0,0,9.46-4,14.84,3.58,3.91,5.51,4.65,21-5.36,24.46C143.89,218.49,131.32,202.52,131.32,202.52Z" transform="translate(-33.06 -68.4)"/><path class="cls-4" d="M152.33,210.07c0,6.53-4.69,10.73-10.47,10.73s-10.48-4.2-10.48-10.73v-7.62a10.09,10.09,0,0,0,8.63-4.57s2.27,4,12.27,5.6Z" transform="translate(-33.06 -68.4)"/><path class="cls-4" d="M149.11,207.05a3.58,3.58,0,1,1,3.58,3.57A3.58,3.58,0,0,1,149.11,207.05Z" transform="translate(-33.06 -68.4)"/><path class="cls-13" d="M148.57,218.5V223a4.14,4.14,0,0,1-1.56,3.25l-5.61,4.51L138.62,228A4.13,4.13,0,0,1,137.4,225v-5.16a11.14,11.14,0,0,0,4.46.91A10.58,10.58,0,0,0,148.57,218.5Z" transform="translate(-33.06 -68.4)"/><path class="cls-4" d="M117,260.44s-10.46,16.3-16.62,12.92c-7.74-4.24-9.28-37.11-9.28-37.11l5.25-1.91s5.57,26.75,6.37,27.06,5.41-9.87,5.41-9.87Z" transform="translate(-33.06 -68.4)"/><rect class="cls-12" x="89.23" y="220.09" width="10.98" height="19.46" rx="2.1" transform="translate(156.37 391.25) rotate(180)"/><path class="cls-4" d="M91,225.82h0a3.3,3.3,0,0,1,3.28,3.29v5.37A3.29,3.29,0,0,1,91,237.76h0a3.29,3.29,0,0,1-3.29-3.28v-5.37A3.3,3.3,0,0,1,91,225.82Z" transform="translate(-33.06 -68.4)"/><path class="cls-9" d="M122.42,290.1" transform="translate(-33.06 -68.4)"/><path class="cls-4" d="M162.09,292.29l-.45,7.85,23.69-29.87c-.68-3.95-4.06-13.08-7.4-17.84l-11.23,6.13,8.4,11.17Z" transform="translate(-33.06 -68.4)"/><path class="cls-14" d="M117.76,202.86a28.26,28.26,0,1,0-8.41,5.27l9.93,5.62Z" transform="translate(-33.06 -68.4)"/><path class="cls-15" d="M110.64,178.11l.35-3.83H107.8l.48-4.81h-4l-.48,4.81H93.5l.49-4.81H90l-.48,4.81H86.29l-.35,3.83h3.19l-.94,7.51h-3l-.44,3.82H88l-.48,4.8h4l.48-4.8h10.31l-.49,4.8h4l.49-4.8h3.22l.35-3.84h-3.19l.76-7.49Zm-8,7.49H92.36l.76-7.49h10.31Z" transform="translate(-33.06 -68.4)"/><path class="cls-16" d="M373,391.18s-47.84-32.84-53.8-32.09-47.5,52-47.5,52h13.23L321,380.36s27.27,34.51,39.56,32.46S382.74,399,382.74,399Z" transform="translate(-33.06 -68.4)"/><path class="cls-17" d="M386.17,399.38s-8.69,17.13-26.57,15.89l-111.25-2-.78-9.95,103.84-12.89,21.85,2.48Z" transform="translate(-33.06 -68.4)"/><path class="cls-18" d="M269.21,398.38" transform="translate(-33.06 -68.4)"/><path class="cls-4" d="M398,412.54s1.74,4.59,6,5.84,14.53,3.1,13.91,1-10.18-6.58-10.18-6.58Z" transform="translate(-33.06 -68.4)"/><path class="cls-19" d="M244.54,405.92s-7.47-18.66-11.95-18.1,1.95,25.15,3,25.49c1.86.61,9.51.05,9.51.05Z" transform="translate(-33.06 -68.4)"/><polygon class="cls-4" points="215.29 344.88 212.02 344.96 211.47 337.52 214.7 337.29 215.29 344.88"/><path class="cls-4" d="M321.87,347.64l-7-10.53a1.7,1.7,0,0,0-2.47-.21h0a6.2,6.2,0,0,0-1.58,7.08c1,2.46,3.36,6.65,5.17,7.95Z" transform="translate(-33.06 -68.4)"/><path class="cls-12" d="M310.84,326.14l-5.82.67c-.85.09-1.27.73-.95,1.42l7.24,15.29a2.18,2.18,0,0,0,2.13,1.07l5.81-.66c1.36-.16,1.26-.69.95-1.42L313,327.21A2.21,2.21,0,0,0,310.84,326.14Z" transform="translate(-33.06 -68.4)"/><path class="cls-4" d="M320.4,345.74l.46-4.54a1.73,1.73,0,0,0-1-2.07l-1.76-.77a1.13,1.13,0,0,0-1.43.47h0a1.13,1.13,0,0,0,.47,1.57l.82.41.84.4-1.21,3Z" transform="translate(-33.06 -68.4)"/><path class="cls-20" d="M368.92,330.28s-6.09,2.42-11.3,10.86c-1.89,3.06-8.38,22.73-8.38,22.73l-27.63-17.63-6.46,6.2S350,381,359.11,381,368.92,330.28,368.92,330.28Z" transform="translate(-33.06 -68.4)"/><path class="cls-21" d="M369.54,330.09a13.41,13.41,0,0,0-8.32,9.94c-1.37,7.57-4.35,42.71-9.81,50.41,0,0,21.6,11.42,34.76,8.94L394,374.17l4,38.37,9.69.25s-2.61-70-10.56-76.49a38.84,38.84,0,0,0-17.38-7.7Z" transform="translate(-33.06 -68.4)"/><path class="cls-22" d="M389.4,344.19s4.42,40.72-12.42,55.13a28.39,28.39,0,0,0,9.19.06L394,374.17S392.57,348.28,389.4,344.19Z" transform="translate(-33.06 -68.4)"/><path class="cls-23" d="M356.89,309.6s-6.11-1-6.62-6.3,4.73-10.57,7.13-10.78c0,0-1.09,5.17,3.5,3.71s12.68-4.66,16.61-2.26,17.77,12.68,2.11,30.09l-15.15-8.69Z" transform="translate(-33.06 -68.4)"/><path class="cls-4" d="M356.89,309.6s-2.59,21.22,13.45,15.53l-.48,5.63s1.9,5.83,3.79,5.1,6-6.7,6-6.7V316.92l-5.1-8.89-6.41-2.33S360.67,309.14,356.89,309.6Z" transform="translate(-33.06 -68.4)"/><path class="cls-4" d="M381.88,313.9a4,4,0,1,0-4,4A4,4,0,0,0,381.88,313.9Z" transform="translate(-33.06 -68.4)"/><path class="cls-24" d="M378.86,264.69a32.66,32.66,0,1,1,9.74,6.11l-11.51,6.51Z" transform="translate(-33.06 -68.4)"/><path class="cls-15" d="M413.59,236.89l.38-4.23h-3.51l.53-5.3h-4.4l-.54,5.29H394.68l.54-5.3h-4.41l-.53,5.29h-3.55l-.39,4.23h3.52l-1,8.29h-3.25l-.48,4.21h3.51l-.53,5.3h4.4l.53-5.3h11.37l-.53,5.3h4.4l.54-5.3h3.55l.38-4.23H409.2l.83-8.27Zm-8.79,8.27H393.43l.83-8.27h11.37Z" transform="translate(-33.06 -68.4)"/><path class="cls-12" d="M268.85,255c-.69-2.55-1.94-3.35-3.25-3.34s-2.55.79-3.25,3.34c-1.93,7.07,1.27,20,3.11,20.18l.14,0,.14,0C267.58,275.07,270.78,262.09,268.85,255Z" transform="translate(-33.06 -68.4)"/><path class="cls-12" d="M296,238.72l2.32,10.18,2.38-.69.32-4s5.31,1.95,6.76,1.92,11.25-3.25,11.25-3.25-1-1.66-1.83-1.67-12.79-.44-15.14-3.51Z" transform="translate(-33.06 -68.4)"/><path class="cls-4" d="M301.69,236.17l.41,1.57,4,2.12s-8.65.16-10-1.14l-1.46-5.05Z" transform="translate(-33.06 -68.4)"/><path class="cls-4" d="M262,255.88s2.13,7,3.71,6.79,3.18-7.06,3.18-7.06Z" transform="translate(-33.06 -68.4)"/><path class="cls-25" d="M273.1,108.66a12.83,12.83,0,0,0-3.11-7.49c-2.49-2.78-6.63-3.44-10.26-2.59-3.62-.85-7.24-.19-9.74,2.59a12.89,12.89,0,0,0-3.11,7.49c-1,10.07-6.58,21.51-4.74,24.49,2.31,3.72,11.32,2.32,17.85.18,6.53,2.14,15.78,3.67,18.09-.05C279.92,130.31,274.13,118.73,273.1,108.66Z" transform="translate(-33.06 -68.4)"/><path class="cls-26" d="M280,132.81c-6.1-3.67-17.59-4.65-17.59-4.65l-1.68-.61-1.3.61s-11.48,1-17.59,4.65-19.47,23.54-18,30.17c1.79,8.06,18,17.1,18,17.1H280s13.69-11.73,17.84-17.1S286.14,136.47,280,132.81Z" transform="translate(-33.06 -68.4)"/><circle class="cls-4" cx="217.55" cy="47.31" r="2.49"/><path class="cls-4" d="M272.07,115.72a2.5,2.5,0,1,0-2.49,2.49A2.5,2.5,0,0,0,272.07,115.72Z" transform="translate(-33.06 -68.4)"/><path class="cls-13" d="M263,131.44h0a5.66,5.66,0,0,1-5.47,0h0a3.12,3.12,0,0,1-1.61-2.72v-5.09h8.68v5.09A3.11,3.11,0,0,1,263,131.44Z" transform="translate(-33.06 -68.4)"/><path class="cls-4" d="M270.06,113.47v3c0,5.94-4.39,10.77-9.82,10.77s-9.82-4.83-9.82-10.77v-3.2s9.23-2.1,11.07-5.12C261.49,108.16,267.42,113.4,270.06,113.47Z" transform="translate(-33.06 -68.4)"/><path class="cls-27" d="M279.38,148.53H244.22a3.71,3.71,0,0,0-3.66,4.29l3.54,21.94a4.51,4.51,0,0,0,4.44,3.77h26.52a4.49,4.49,0,0,0,4.43-3.77L283,152.82A3.7,3.7,0,0,0,279.38,148.53Z" transform="translate(-33.06 -68.4)"/><circle class="cls-15" cx="228.37" cy="92.81" r="3.6"/><path class="cls-28" d="M234.26,183.47a17.13,17.13,0,0,1,6.26-6.66C249,171.5,274.43,157,283.1,167c10.47,12.08,18.9,69.57,18.9,69.57l-6.7,1.92-21.87-48.93s-14.47,9.79-25.6,11.81C236,203.5,228.62,194.57,234.26,183.47Z" transform="translate(-33.06 -68.4)"/><path class="cls-29" d="M277,194.39c0-7.66-5.13-13.87-11.45-13.87s-11.44,6.21-11.44,13.87l7.76,61.68,7.06-.27Z" transform="translate(-33.06 -68.4)"/><path class="cls-30" d="M292.7,118.63a26.36,26.36,0,1,1,7.83,4.9l-9.25,5.23Z" transform="translate(-33.06 -68.4)"/><path class="cls-15" d="M322.48,94.65l.32-3.5h-2.91l.44-4.38h-3.64l-.44,4.38h-9.4l.44-4.38h-3.64l-.44,4.38h-2.94l-.32,3.5h2.91L302,101.5h-2.69l-.4,3.48h2.91l-.44,4.39H305l.44-4.38h9.4l-.44,4.39h3.64l.44-4.38h2.94l.32-3.49h-2.91l.69-6.84Zm-7.27,6.84h-9.4l.69-6.84h9.4Z" transform="translate(-33.06 -68.4)"/><ellipse class="cls-31" cx="159.07" cy="96.76" rx="38.55" ry="25.98" transform="translate(-58.46 3.1) rotate(-23.52)"/><ellipse class="cls-32" cx="368.92" cy="85.42" rx="17.82" ry="17"/><circle class="cls-31" cx="410.37" cy="68.01" r="8.7"/><ellipse class="cls-32" cx="28.86" cy="192.65" rx="22.83" ry="25.63"/></g></g></svg>